<svg viewBox="0 0 88.06 49.62" xmlns="http://www.w3.org/2000/svg"><g fill="none" stroke="#d0b300" stroke-miterlimit="10" stroke-width="1.8"><path d="m.46 14.91h43.49v.95h-43.49z" transform="matrix(.9525553 -.30436558 .30436558 .9525553 -3.63 7.49)"/><path d="m69.85 34.2h-22.89v-.95h21.94v-12.65l-9.89-2.91v13.05h-.95v-14.32l11.79 3.47z"/><path d="m19.07 34.4v-13.19l11.79-3.18v13.15h-.95v-11.91l-9.89 2.66v11.51l22.58-.12v-30.13h.96v31.07z"/><path d="m6.59 34.4v-13.8h.95v12.84l6.98-.06.01.95z"/><path d="m62.12-15.32h.95v51.37h-.95z" transform="matrix(.34119998 -.93999073 .93999073 .34119998 31.5 65.67)"/><path d="m81.96 34.27h-8.6v-.96h7.65v-16.09h.95z"/></g><text fill="#d0b300" font-family="SourceSerifRoman-Bold, 'Source Serif Variable'" font-size="12" transform="translate(0 45.6)"><tspan letter-spacing="0em" x="0" y="0">H</tspan><tspan letter-spacing="0em" x="9.16" y="0">O</tspan><tspan letter-spacing=".01em" x="17.48" y="0">ME IN</tspan><tspan letter-spacing="-.01em" x="52.06" y="0"/><tspan letter-spacing=".01em" x="54.49" y="0">VEI</tspan><tspan letter-spacing="-.01em" x="74.65" y="0">W</tspan></text></svg>