<svg height="256" viewBox="0 0 512 512" width="256" xmlns="http://www.w3.org/2000/svg"><g fill="#4b4b4b"><path d="m409.6.746c-56.553 0-102.4 45.842-102.4 102.395s45.847 102.405 102.4 102.405 102.4-45.852 102.4-102.405-45.847-102.395-102.4-102.395z"/><path d="m175.116 264.684 141.198-76.931c-12.072-13.295-21.444-29.102-26.988-46.627l-137.398 83.006c-16.107-16.075-38.332-26.01-62.878-26.01-49.181 0-89.05 39.859-89.05 89.044 0 49.176 39.869 89.035 89.048 89.035 49.171 0 89.04-39.859 89.04-89.035 0-7.783-1.098-15.28-2.972-22.482z"/><path d="m356.178 359.886c-21.661 0-41.143 9.15-54.938 23.729l-105.064-61.372c-4.534 13.803-11.629 26.443-20.77 37.339l107.635 56.783c-1.611 6.149-2.553 12.558-2.553 19.205 0 41.798 33.885 75.684 75.689 75.684 41.798 0 75.683-33.886 75.683-75.684s-33.884-75.684-75.682-75.684z"/></g></svg>